<?xml version="1.0" standalone="no"?>
<!DOCTYPE svg PUBLIC "-//W3C//DTD SVG 20010904//EN"
 "http://www.w3.org/TR/2001/REC-SVG-20010904/DTD/svg10.dtd">
<svg version="1.0" xmlns="http://www.w3.org/2000/svg"
 width="1024.000000pt" height="1024.000000pt" viewBox="0 0 1024.000000 1024.000000"
 preserveAspectRatio="xMidYMid meet">

<g transform="translate(0.000000,1024.000000) scale(0.100000,-0.100000)"
fill="#000000" stroke="none">
<path d="M2135 8750 c0 -822 1 -1159 2 -748 2 412 2 1084 0 1495 -1 412 -2 75
-2 -747z"/>
<path d="M4480 9600 l0 -640 635 0 635 0 0 640 0 640 -635 0 -635 0 0 -640z
m653 511 l487 -1 0 -515 0 -515 -505 0 -505 0 0 519 c0 489 1 519 18 516 9 -2
236 -4 505 -4z"/>
<path d="M5030 9902 c0 -5 97 -7 215 -5 l215 5 1 -24 c1 -20 2 -21 6 -3 3 11
10 23 17 27 6 4 -94 8 -221 8 -128 0 -233 -4 -233 -8z"/>
<path d="M5481 9874 c0 -11 3 -14 6 -6 3 7 2 16 -1 19 -3 4 -6 -2 -5 -13z"/>
<path d="M5032 9850 c0 -19 2 -27 5 -17 2 9 2 25 0 35 -3 9 -5 1 -5 -18z"/>
<path d="M5073 9863 c9 -2 23 -2 30 0 6 3 -1 5 -18 5 -16 0 -22 -2 -12 -5z"/>
<path d="M5463 9815 c0 -22 2 -30 4 -17 2 12 2 30 0 40 -3 9 -5 -1 -4 -23z"/>
<path d="M5480 9591 c0 -198 -3 -261 -12 -264 -8 -3 -6 -6 5 -6 16 -1 17 18
17 264 0 146 -2 265 -5 265 -3 0 -5 -117 -5 -259z"/>
<path d="M5165 9800 c3 -5 8 -10 11 -10 2 0 4 5 4 10 0 6 -5 10 -11 10 -5 0
-7 -4 -4 -10z"/>
<path d="M5130 9786 c0 -2 8 -10 18 -17 15 -13 16 -12 3 4 -13 16 -21 21 -21
13z"/>
<path d="M5210 9747 c0 -8 7 -17 15 -21 8 -3 15 -3 15 0 0 3 -7 12 -15 20 -13
13 -15 13 -15 1z"/>
<path d="M5242 9635 c0 -16 2 -22 5 -12 2 9 2 23 0 30 -3 6 -5 -1 -5 -18z"/>
<path d="M4916 9615 c3 -8 14 -17 24 -20 10 -3 21 -14 23 -23 3 -14 6 -12 15
8 9 22 11 23 12 5 l1 -20 9 20 c8 19 9 19 9 -2 1 -13 -3 -23 -9 -23 -5 0 -9
-10 -9 -22 1 -18 2 -19 6 -5 2 9 9 15 14 12 5 -4 9 14 9 39 l0 46 -55 0 c-44
0 -53 -3 -49 -15z"/>
<path d="M5145 9550 c3 -5 8 -10 11 -10 2 0 4 5 4 10 0 6 -5 10 -11 10 -5 0
-7 -4 -4 -10z"/>
<path d="M4790 9475 c0 -53 1 -55 28 -55 15 0 38 -3 51 -7 18 -4 22 -2 19 8
-4 10 -18 13 -47 11 -45 -4 -58 14 -13 20 l27 4 -25 11 c-25 12 -25 12 7 12
25 1 31 5 27 16 -4 8 -2 15 4 15 5 0 15 -7 22 -15 10 -12 10 -18 0 -30 -7 -9
-9 -19 -5 -23 4 -4 10 -1 12 6 3 6 10 12 18 12 7 0 18 6 24 14 10 12 6 17 -21
29 -18 8 -54 18 -80 21 l-48 6 0 -55z"/>
<path d="M5098 9523 c12 -2 30 -2 40 0 9 3 -1 5 -23 4 -22 0 -30 -2 -17 -4z"/>
<path d="M5275 9522 c6 -5 29 -12 52 -14 55 -5 42 8 -17 17 -30 5 -42 4 -35
-3z"/>
<path d="M4960 9484 c0 -12 16 -14 80 -13 94 2 109 19 18 20 -35 0 -71 2 -80
4 -11 2 -18 -3 -18 -11z"/>
<path d="M5288 9488 c-8 -4 4 -8 30 -8 23 0 42 2 42 4 0 8 -60 12 -72 4z"/>
<path d="M5416 9492 c-3 -6 -1 -14 5 -17 15 -10 25 3 12 16 -7 7 -13 7 -17 1z"/>
<path d="M4900 9425 c0 -8 9 -15 20 -15 11 0 20 7 20 15 0 8 -9 15 -20 15 -11
0 -20 -7 -20 -15z"/>
<path d="M5200 9429 c0 -5 5 -7 10 -4 6 3 10 8 10 11 0 2 -4 4 -10 4 -5 0 -10
-5 -10 -11z"/>
<path d="M4912 9313 l-2 -93 28 1 c23 2 23 2 5 6 -21 4 -22 11 -26 91 l-3 87
-2 -92z"/>
<path d="M5141 9353 c-1 -6 -4 -20 -7 -30 -5 -17 -5 -17 6 0 6 10 9 23 6 30
-3 9 -5 9 -5 0z"/>
<path d="M5161 9343 c-1 -23 0 -23 146 -23 80 0 144 2 142 4 -2 3 -65 6 -139
8 -109 2 -136 6 -142 18 -5 11 -7 9 -7 -7z"/>
<path d="M5857 9383 c-3 -472 -8 -873 -12 -890 -7 -33 -8 -33 -66 -33 l-59 0
0 130 0 130 -625 0 -625 0 0 -60 c0 -46 -3 -60 -15 -61 -8 -1 -19 -3 -25 -4
-5 -1 -28 -3 -50 -4 l-41 -1 3 -57 3 -58 63 -3 62 -3 0 56 0 55 115 0 116 0
-3 -57 -3 -58 -57 -3 -58 -3 0 -59 0 -60 -58 0 c-59 0 -83 -12 -81 -39 0 -11
3 -10 9 4 6 15 9 6 9 -32 l1 -51 -67 -4 c-85 -4 -163 1 -163 10 0 4 19 7 43 6
23 -1 30 1 15 3 -26 4 -40 23 -18 23 6 0 10 14 10 30 0 26 3 30 29 30 16 0 31
-6 35 -15 8 -22 31 -19 33 4 1 17 -7 21 -60 26 -34 4 -66 6 -72 5 -5 -1 -38
-2 -72 -1 l-63 1 0 65 0 65 -66 0 c-56 0 -65 -2 -60 -16 3 -9 6 -41 6 -71 l0
-55 55 7 55 6 0 -60 c0 -33 5 -63 11 -66 5 -4 32 -7 59 -7 l48 1 1 -61 1 -60
-55 7 -55 6 0 -65 0 -66 -69 0 -69 0 5 -54 c5 -49 3 -55 -17 -61 -12 -4 -37
-4 -56 0 l-34 6 0 -116 0 -115 -32 -1 c-18 -1 -46 -2 -63 -3 l-30 -1 3 -62 4
-63 -121 0 -121 0 0 55 0 55 -297 -2 -297 -3 1 -22 c0 -13 1 -283 2 -600 l1
-578 75 3 75 4 0 69 c0 48 4 69 13 69 6 1 46 2 87 3 l75 2 3 -72 3 -73 250 0
249 0 -1 101 c0 55 1 102 2 103 2 2 31 6 64 9 36 3 52 2 40 -3 -17 -7 -17 -9
-2 -9 14 -1 17 -11 17 -61 l0 -60 60 0 60 0 0 -60 0 -59 58 -3 57 -3 3 -52 3
-53 180 0 179 0 0 55 0 55 60 0 60 0 0 169 0 169 55 4 55 3 0 -62 0 -63 50 0
c39 0 52 -4 57 -17 12 -31 21 23 22 135 l1 102 104 0 105 0 3 -52 3 -53 105 0
105 0 3 51 3 51 102 5 c56 3 105 4 110 1 4 -2 7 -73 7 -158 l0 -154 -57 -3
-58 -3 -3 -58 -3 -57 -207 2 -207 3 -3 58 -3 57 -59 0 -60 0 0 -65 0 -65 60 0
60 0 0 -55 0 -55 214 0 215 0 3 53 3 52 58 3 57 3 0 53 c0 59 8 66 78 66 l32
0 0 110 0 110 120 0 120 0 0 -175 0 -175 55 0 56 0 -3 -57 -3 -58 -52 1 -53 2
0 -64 0 -64 -60 0 -60 0 0 -60 0 -60 -60 0 -60 0 0 -60 0 -59 -57 -3 -58 -3
-3 -57 -3 -58 -82 0 c-45 0 -119 -3 -164 -7 l-83 -6 0 -58 0 -59 -52 1 c-29 0
-73 4 -98 8 -39 7 -41 9 -12 10 l32 1 0 56 0 57 -37 -7 c-21 -3 -44 -6 -51 -6
-11 0 -12 -13 -7 -60 l7 -61 -113 3 -114 3 -3 63 -3 62 -54 0 c-37 0 -55 4
-56 13 0 6 -1 32 -2 57 l-2 45 -57 3 -58 3 -2 67 c-1 37 -3 90 -3 117 l0 50
-52 1 c-29 1 -53 -1 -54 -5 0 -3 -2 -15 -4 -26 -2 -11 -7 -87 -11 -170 l-7
-150 -48 3 c-37 3 -49 8 -51 20 -3 32 -16 -184 -17 -289 l-1 -106 -55 2 -55 1
0 -58 0 -58 50 0 c32 0 52 -5 55 -12 2 -7 6 -55 9 -106 3 -51 8 -97 11 -102 4
-6 27 -10 52 -10 36 0 44 3 40 15 -4 8 -2 17 3 20 6 4 10 -49 10 -139 0 -80 1
-147 3 -147 1 -1 54 -4 117 -8 l115 -6 0 -50 0 -50 57 -3 57 -3 3 -62 3 -62
58 3 c56 3 57 3 58 -25 l1 -28 8 30 c4 17 8 56 9 88 l1 57 54 0 c29 0 68 -3
85 -6 l31 -7 0 -989 0 -989 -87 3 -88 3 4 133 c3 133 3 134 -18 123 -13 -8
-76 -11 -178 -9 l-158 3 -3 298 -2 297 -60 0 c-50 0 -60 3 -61 18 0 9 -2 67
-2 127 l-2 110 -58 0 -57 0 0 52 0 52 -61 3 -61 3 -1 215 -2 215 -57 3 -58 3
0 148 c0 81 -3 182 -6 223 l-7 75 -51 -5 c-28 -3 -54 -10 -58 -16 -4 -6 -8
-54 -8 -107 l0 -95 -42 -3 c-23 -1 -43 -3 -44 -4 -1 -1 -5 -62 -8 -136 l-7
-133 40 4 c25 2 41 -1 41 -7 0 -6 -16 -9 -40 -7 -27 3 -40 0 -40 -8 0 -9 15
-11 51 -8 l50 5 -3 -183 c-2 -100 -5 -185 -8 -187 -3 -3 -48 -7 -100 -8 -136
-4 -130 -1 -130 -70 l0 -59 -42 -2 c-24 -1 -79 -2 -123 -2 l-80 -1 -1 -60 c-1
-68 4 -91 18 -77 12 12 80 3 91 -12 4 -6 6 -32 4 -58 l-4 -48 63 0 c67 0 66 0
66 -50 0 -11 0 -54 -1 -95 l-1 -75 -54 0 -54 0 -7 -110 -7 -110 -32 -1 c-17 0
-39 -2 -48 -4 -11 -2 -19 3 -19 13 -3 37 -6 100 -8 155 l-1 57 -65 0 -65 0 0
-60 0 -60 -55 0 c-37 0 -55 -4 -56 -12 -5 -119 -6 -203 -3 -213 3 -8 22 -10
59 -7 l55 4 0 -51 c0 -39 -4 -51 -15 -51 -8 0 -15 6 -15 13 0 9 -2 9 -8 0 -4
-6 -23 -13 -42 -15 l-35 -3 -3 -117 -3 -118 -54 0 -54 0 -3 57 -3 57 -63 -3
-64 -2 3 58 3 58 -67 3 c-77 3 -69 -12 -67 140 l1 82 -50 1 c-64 2 -79 2 -88
0 -5 0 -7 -53 -5 -116 l3 -115 65 0 64 0 0 -60 0 -59 63 -3 62 -3 3 -62 3 -63
64 0 65 0 0 -120 0 -120 55 0 55 0 0 -120 0 -120 -180 0 -180 0 0 -60 0 -60
-125 0 -125 0 0 60 0 60 60 0 60 0 0 60 0 59 63 3 62 3 0 110 0 110 -40 3
c-22 2 -104 1 -183 -3 l-142 -7 0 -108 c0 -59 -3 -135 -6 -169 l-7 -61 -47 0
-47 0 -8 -120 -7 -120 -59 0 -59 0 -2 183 c0 100 0 230 2 290 l2 107 -56 0
-56 0 0 -116 0 -115 -42 3 -43 3 0 245 0 245 91 3 c102 3 104 4 104 85 l0 37
60 0 60 0 0 60 0 60 63 0 63 0 -4 55 -4 55 59 0 59 0 0 62 -1 63 63 5 c34 3
62 8 62 13 0 4 0 27 0 52 l0 45 60 0 60 0 0 105 0 105 65 0 65 0 0 -109 c0
-78 -4 -111 -12 -114 -7 -3 11 -6 40 -6 28 -1 52 3 52 8 0 4 36 11 81 14 44 3
82 7 84 9 2 2 5 51 6 108 l2 105 -42 6 c-49 6 -58 14 -64 54 -3 24 -4 21 -6
-12 l-1 -43 -70 0 -71 0 3 63 3 62 72 3 c58 2 71 6 66 17 -3 8 0 15 6 15 6 0
11 5 11 11 0 5 -4 8 -9 5 -9 -6 -21 73 -21 147 l0 47 59 0 c58 0 59 1 65 31 3
17 6 47 6 65 l0 34 60 0 60 0 0 115 0 115 58 0 59 0 6 247 c9 316 9 690 0 816
l-6 98 -63 -3 c-35 -1 -66 1 -70 5 -4 4 -2 7 3 7 7 0 11 19 11 45 l0 45 -241
0 c-133 0 -333 3 -445 7 l-203 6 1 561 c0 309 0 596 0 639 l0 77 -126 0 -125
0 2 53 3 52 -327 3 -327 2 0 23 c0 12 -1 119 -3 237 l-2 215 53 3 52 3 0 225
0 226 58 -4 57 -3 3 188 c2 173 1 187 -15 188 -10 0 -61 1 -113 2 l-95 2 -3
62 -3 62 58 -2 58 -2 -4 142 -3 142 58 3 59 3 3 113 3 112 -56 0 -55 0 0 60 0
60 55 0 55 0 0 61 0 61 -60 -7 -60 -7 0 56 0 56 -55 0 -55 0 0 -50 c0 -50 0
-50 33 -51 29 -1 30 -2 7 -8 -24 -7 -42 -41 -21 -41 6 0 11 6 11 14 0 20 47 8
53 -15 9 -35 -3 -59 -32 -58 -25 0 -25 0 -3 9 27 12 29 24 2 17 -11 -3 -20 -1
-20 4 0 5 7 9 15 9 17 0 20 16 5 25 -5 3 -10 1 -10 -4 0 -6 -7 -11 -15 -11 -8
0 -16 -6 -16 -12 -1 -7 -2 -20 -3 -28 -1 -11 -17 -16 -63 -18 l-62 -3 -3 63
-3 63 -120 5 -120 5 -3 63 -3 62 61 0 60 0 -2 168 -3 167 -57 3 -58 3 0 109 0
110 55 0 55 0 0 65 0 65 -58 0 -59 0 3 -46 c4 -69 -1 -74 -62 -74 l-54 0 0
-50 0 -50 -58 0 -57 0 0 -62 0 -61 -62 2 -62 2 -3 -78 -3 -78 -60 0 -60 0 0
65 0 65 -65 5 -65 5 -3 62 -3 61 -59 0 -60 -1 0 -63 0 -64 65 0 65 0 1 -137
c1 -76 4 -148 7 -161 4 -12 6 -53 4 -90 l-3 -67 -67 5 -67 5 2 88 2 87 -64 0
-65 0 0 -90 0 -89 58 -3 57 -3 0 -60 0 -60 -57 -3 c-46 -2 -58 -6 -59 -20 0
-10 -3 -12 -6 -4 -3 7 -24 12 -54 12 l-49 0 0 -130 c0 -80 4 -130 10 -130 6 0
10 12 10 26 0 14 7 32 15 40 9 9 16 36 16 67 2 49 2 50 9 17 l7 -35 2 30 c2
26 4 27 11 10 8 -18 9 -17 9 8 1 16 -3 26 -9 22 -5 -3 -10 3 -10 15 0 12 -4
19 -9 15 -5 -3 -12 -1 -16 5 -3 5 3 10 14 10 11 0 22 -8 24 -17 4 -17 5 -17 6
0 0 9 6 17 11 17 6 0 10 -85 10 -234 l0 -233 31 -7 c17 -3 45 -6 61 -6 l29 0
-3 -122 -3 -123 -118 -3 -117 -3 0 -185 0 -186 108 3 107 4 1 -525 1 -525 746
-3 747 -2 0 -394 c0 -438 6 -406 -71 -406 l-39 0 0 60 0 60 -60 0 -60 0 0 60
0 60 -152 1 c-84 1 -142 4 -128 8 22 6 25 12 25 54 l0 47 63 1 c34 1 67 3 72
4 6 1 15 3 20 4 6 0 10 26 10 56 l0 55 -450 0 -450 0 0 -60 c0 -33 3 -59 8
-59 4 1 34 1 67 0 l60 -1 0 -55 0 -55 -367 0 -368 0 0 -60 0 -60 735 0 735 0
0 -60 0 -60 93 0 c135 0 137 -1 137 -66 l0 -54 55 0 55 0 0 -55 0 -55 -55 0
-55 0 0 -298 0 -298 -55 -2 -55 -2 0 273 c0 151 -3 308 -6 350 l-7 75 -109 8
-110 7 4 53 3 54 -651 0 c-358 0 -666 3 -683 6 l-31 7 0 -2992 0 -2991 1565 0
c1078 0 1565 3 1565 10 0 7 -100 10 -310 8 l-310 -3 0 163 0 162 28 0 c15 0
43 3 62 6 l35 6 -3 54 -4 54 436 0 435 0 -1 -49 c0 -28 3 -55 7 -61 7 -11 402
-14 458 -3 25 5 27 9 27 59 l0 54 240 0 240 0 -2 -27 c-1 -16 -1 -43 0 -62 l2
-33 340 7 340 7 0 -56 c0 -31 3 -56 8 -56 4 -1 158 -2 342 -3 l335 -2 2 -50
c1 -27 2 -56 2 -63 1 -9 15 -11 49 -8 26 2 169 5 318 5 211 1 272 4 271 14 0
6 1 32 1 57 l2 45 90 0 89 0 3 -60 3 -60 56 -3 c62 -3 69 -11 69 -79 l0 -33
385 0 385 0 0 55 0 55 53 1 c28 1 79 2 112 3 l60 2 3 61 3 62 -58 3 -58 3 -3
59 -3 58 -37 -6 c-20 -3 -47 -6 -59 -6 -21 0 -23 -5 -23 -55 l0 -55 -442 2
-443 3 0 52 c0 28 -3 54 -6 58 -4 3 -59 3 -124 -1 l-117 -7 5 -47 5 -48 -45
-6 c-75 -10 -73 -12 -73 52 l0 57 -180 -3 -180 -4 0 56 0 56 -268 0 c-148 0
-271 2 -273 4 -2 2 -2 29 -1 60 l4 56 253 0 c160 0 256 4 260 10 3 6 -2 13
-12 17 -15 6 -13 9 12 19 17 7 24 13 18 14 -7 0 -13 10 -12 23 0 20 1 21 8 2
7 -16 9 -14 14 14 4 19 7 49 7 67 l0 33 113 3 112 3 3 53 3 52 55 0 54 0 0 55
0 55 120 0 120 0 0 60 0 60 260 0 260 0 0 60 0 60 124 0 125 0 4 -37 c2 -21 4
170 5 425 l2 462 55 0 54 0 3 58 3 57 528 -2 527 -2 0 130 0 129 65 0 65 0 0
60 0 60 60 0 60 0 0 -60 0 -60 -44 0 c-71 0 -76 -4 -76 -71 l0 -59 48 0 c26 0
52 -4 59 -8 6 -4 13 -32 15 -62 l3 -55 418 -3 417 -2 0 -58 0 -57 -177 0 -177
0 -1 -62 c0 -34 -4 -65 -7 -68 -4 -4 -30 -3 -60 2 l-53 8 -3 58 -3 58 -57 -3
-57 -3 0 -110 0 -110 -57 -3 -56 -3 -4 61 c-2 35 1 60 7 60 6 0 4 4 -3 9 -9 5
-13 22 -10 47 l3 39 -118 2 c-65 0 -121 4 -124 7 -4 3 0 6 8 6 10 1 8 4 -4 11
-10 6 -21 8 -24 5 -4 -3 -2 -6 3 -6 5 0 7 -41 4 -97 -3 -53 -4 -110 -2 -125
l4 -28 124 0 124 0 0 -55 0 -54 63 -3 62 -3 6 -65 6 -65 2 55 c3 42 5 48 10
28 4 -19 10 -25 19 -19 7 4 12 14 10 21 -2 7 4 15 12 17 13 4 13 3 1 -6 -12
-8 -10 -11 11 -16 15 -4 29 -13 32 -21 4 -10 23 -14 67 -14 52 0 60 -2 55 -16
-3 -9 -6 -21 -6 -27 0 -8 -17 -11 -50 -9 -56 4 -60 0 -63 -69 l-2 -44 -40 -1
c-22 -1 -45 3 -51 8 -14 10 -25 -128 -15 -176 13 -60 6 -68 -60 -65 -32 1 -62
-1 -66 -4 -3 -4 -30 -7 -60 -7 l-53 0 0 -55 0 -55 -130 0 -130 0 0 -115 0
-115 -60 0 -60 0 0 -65 0 -65 -227 -2 c-126 -1 -310 0 -410 2 l-183 3 0 -42 0
-41 54 0 55 0 3 -42 3 -42 173 3 172 3 0 -66 0 -66 310 0 310 0 0 60 0 60 177
-2 177 -3 0 -54 1 -55 -58 3 c-48 2 -58 0 -63 -16 -3 -10 -10 -26 -15 -35 -6
-12 -6 -18 1 -18 5 0 10 -11 10 -25 0 -21 -5 -25 -30 -25 -17 0 -33 7 -39 17
-10 17 -10 17 -11 -1 0 -11 -5 -16 -14 -13 -8 3 -17 3 -20 0 -3 -3 -34 -6 -68
-7 l-63 -1 3 -52 2 -52 -62 -3 -63 -3 -5 -60 -5 -60 -50 -2 c-27 -1 -83 -2
-122 -2 l-73 -1 0 -50 0 -50 -64 0 c-36 0 -68 -4 -71 -10 -4 -7 353 -10 1064
-10 l1071 0 0 679 c0 741 4 691 -55 691 -22 0 -24 5 -27 57 l-3 57 -105 0
-105 1 -3 113 -3 113 108 -2 c59 -2 127 -2 151 -1 l42 2 0 4265 0 4265 -51 0
c-46 0 -50 -2 -47 -22 l3 -23 -1958 -5 c-1076 -3 -1961 -4 -1967 -2 -5 2 -7
15 -4 28 6 24 6 24 -70 24 l-76 0 0 -885 0 -885 -55 0 -55 0 0 88 c0 48 0 446
0 885 l1 797 -50 0 -50 0 -4 -857z m1595 285 l-2 -128 54 0 c78 0 86 -5 86
-54 0 -23 6 -48 13 -55 8 -10 8 -12 0 -7 -6 3 -14 2 -18 -4 -4 -6 -59 -10
-137 -10 l-131 0 7 92 c3 50 6 138 6 195 l0 104 63 -3 62 -3 -3 -127z m2268
-307 l0 -429 -125 -7 c-111 -7 -248 2 -203 12 25 6 46 79 30 104 -7 11 -10 25
-6 31 4 6 1 9 -7 6 -8 -3 -13 -11 -11 -17 1 -7 -2 -10 -8 -6 -15 9 -12 35 5
41 14 6 14 8 0 18 -20 14 -10 46 14 46 14 0 14 2 1 10 -13 9 -13 11 0 20 13 8
12 10 -2 10 -49 0 25 59 77 61 33 2 35 3 10 6 -71 9 -72 9 -78 65 -4 39 -1 57
11 71 14 16 13 17 -9 17 -33 1 -7 15 44 24 21 4 35 11 31 17 -3 6 4 9 18 8 12
-1 38 -1 56 -1 27 2 32 6 32 27 0 25 -1 25 -90 25 -79 0 -90 2 -91 18 0 9 -1
70 -3 135 l-3 117 154 0 153 0 0 -429z m-2210 356 c5 -42 4 -46 -15 -45 -17 2
-20 9 -20 49 0 36 3 46 15 44 10 -1 17 -18 20 -48z m848 -187 l-3 -119 60 -3
60 -3 0 -60 0 -60 -63 -3 -63 -3 4 -52 4 -52 59 0 59 0 3 -52 3 -53 -60 0 -61
0 0 -44 0 -44 58 1 57 2 3 -51 c3 -58 -4 -64 -85 -64 l-43 0 0 -50 0 -49 63
-3 62 -3 0 -35 0 -35 -60 -5 -60 -5 0 -47 0 -48 58 0 57 0 0 -60 0 -60 -55 0
-55 0 0 -135 0 -135 534 0 c418 0 535 3 538 13 3 6 2 41 -2 77 -9 80 -4 375 6
391 8 14 137 4 142 -11 2 -5 22 -10 43 -10 28 0 38 4 33 12 -5 8 0 9 17 5 13
-4 30 -7 37 -7 13 0 16 -48 6 -87 -6 -20 -13 -23 -60 -23 -57 0 -60 3 -55 57
1 12 -3 24 -9 28 -7 4 -10 -49 -10 -159 l0 -166 -37 0 -38 0 0 -52 0 -53 45
-7 c25 -3 167 -7 316 -7 l272 -1 6 -25 c8 -30 -2 -75 -16 -75 -6 0 -842 -1
-1859 -2 l-1849 -3 0 58 c0 54 1 57 25 57 l25 0 0 654 c0 360 3 661 6 670 5
12 21 16 65 16 l59 0 0 -675 0 -675 364 0 364 0 -3 540 -2 540 26 0 c14 0 43
3 64 6 l37 7 0 -72 0 -71 76 0 c48 0 73 -4 69 -10 -3 -6 1 -13 9 -16 11 -4 16
-19 16 -45 0 -47 -19 -53 -21 -6 l-1 32 -7 -30 c-4 -16 -3 -31 1 -33 4 -2 8
-21 8 -43 0 -39 0 -39 40 -39 26 0 40 -5 40 -13 0 -9 -12 -11 -40 -9 -22 2
-40 0 -40 -4 0 -5 -29 -8 -64 -6 -40 2 -63 8 -63 15 0 7 -1 32 -3 57 -3 43 -3
42 -10 -20 -4 -36 -8 -118 -9 -182 l-1 -118 69 0 c39 0 73 -5 76 -11 4 -6 4
-35 0 -65 l-6 -54 -70 0 -69 0 0 -55 0 -55 64 0 c36 0 68 -5 71 -10 4 -6 11
-8 16 -4 5 3 22 -2 36 -11 16 -11 21 -20 15 -24 -7 -4 -3 -12 10 -20 19 -12
20 -11 15 8 -3 12 -1 21 5 21 5 0 8 -15 6 -32 -3 -31 -5 -33 -48 -35 -25 -2
-78 -6 -117 -9 l-73 -6 0 -59 0 -59 270 0 c149 0 270 4 270 8 0 4 -5 13 -12
20 -9 9 -9 12 0 12 6 0 15 -6 19 -14 4 -7 27 -15 49 -17 38 -4 42 -2 39 18 -1
13 2 23 6 23 5 0 9 -11 9 -25 0 -25 1 -26 65 -23 36 2 65 6 65 11 0 4 0 243 0
532 l0 525 -60 0 -60 0 0 64 c0 73 3 75 73 69 l48 -4 -1 118 c-1 65 -1 121 -1
126 1 4 31 7 67 7 l65 0 -3 -120z m-7420 33 c-10 -2 -28 -2 -40 0 -13 2 -5 4
17 4 22 1 32 -1 23 -4z m145 -23 c4 0 7 -26 5 -57 l-3 -58 -57 -3 -58 -3 0
-70 0 -70 -57 3 -58 3 -3 119 c-1 66 0 126 3 133 4 11 27 13 112 9 60 -3 112
-6 116 -6z m6545 -7 c6 -19 -25 -16 -32 3 -4 11 -1 14 11 12 9 -2 18 -9 21
-15z m-321 -75 c-2 -13 -4 -3 -4 22 0 25 2 35 4 23 2 -13 2 -33 0 -45z m-489
-10 c3 -62 -3 -68 -60 -60 -27 4 -28 6 -28 64 l0 59 43 -3 42 -3 3 -57z m-480
-490 c0 -249 -2 -489 -6 -533 l-7 -80 -59 -3 -59 -3 7 238 c4 131 8 357 7 503
0 146 2 273 5 283 4 13 16 17 50 17 26 0 44 5 44 11 0 8 -17 10 -50 7 -28 -3
-53 -1 -56 3 -3 5 24 9 59 9 l64 0 1 -452z m2656 360 c3 -50 6 -295 6 -545 l0
-453 -66 0 -66 0 3 545 2 545 57 0 57 0 7 -92z m414 16 c-3 -14 -5 -12 -10 9
-3 19 -2 25 4 19 6 -6 8 -18 6 -28z m-1 -46 c-3 -8 -6 -5 -6 6 -1 11 2 17 5
13 3 -3 4 -12 1 -19z m-1837 -7 c0 -11 -35 -21 -72 -21 -18 0 -28 5 -28 15 0
11 12 15 50 15 28 0 50 -4 50 -9z m-755 -36 c0 -28 -3 -30 -42 -36 l-43 -5 0
36 c0 37 0 37 43 36 40 -1 42 -3 42 -31z m-6265 15 c0 -5 -5 -10 -11 -10 -5 0
-7 5 -4 10 3 6 8 10 11 10 2 0 4 -4 4 -10z m305 -155 l0 -150 -60 0 c-55 0
-60 2 -66 25 -13 47 -10 268 4 274 6 2 37 4 67 3 l55 -2 0 -150z m-338 43 c-2
-18 -4 -4 -4 32 0 36 2 50 4 33 2 -18 2 -48 0 -65z m83 -161 l0 -232 -55 -3
-55 -3 0 41 c0 22 7 52 16 65 10 15 12 25 5 25 -6 0 -11 -6 -12 -12 0 -7 -2
-8 -5 -3 -2 6 -31 9 -68 7 l-64 -4 -4 56 -3 56 62 0 c40 0 63 -4 66 -12 3 -8
9 -3 15 12 8 19 11 21 11 7 1 -11 10 -21 21 -24 11 -3 17 -9 14 -15 -3 -5 0
-16 7 -24 9 -11 8 -18 -5 -32 -9 -11 -15 -33 -15 -53 l2 -34 7 40 c4 22 8 31
9 20 2 -16 5 -14 14 10 l11 30 7 -30 c4 -16 7 54 8 158 0 103 3 187 6 187 3 0
5 -105 5 -233z m-60 123 l-11 -25 6 25 c2 14 6 43 7 65 l1 40 4 -40 c2 -23 -1
-52 -7 -65z m40 -25 c0 -77 -4 -125 -10 -125 -5 0 -10 19 -11 43 -1 42 -1 42
-9 9 -4 -18 -11 -36 -15 -40 -7 -7 -4 10 21 111 8 32 14 74 14 93 0 19 2 34 5
34 3 0 5 -56 5 -125z m6497 -567 c-1 -128 -2 -26 -2 227 0 253 1 358 2 233 2
-125 2 -332 0 -460z m905 317 l-9 -120 -1 165 c0 91 2 201 6 245 7 79 7 79 10
-45 1 -69 -2 -179 -6 -245z m-697 309 c19 -5 21 -15 24 -140 l3 -134 -56 0
c-55 0 -55 0 -46 26 6 14 10 52 10 85 0 33 4 59 10 59 6 0 10 -27 10 -60 0
-33 4 -60 9 -60 15 0 25 89 13 126 -8 26 -7 36 4 45 12 10 14 1 14 -54 0 -39
5 -69 12 -73 8 -5 9 9 5 56 -4 35 -7 73 -7 84 0 19 -5 21 -35 18 -38 -4 -42
-11 -23 -30 10 -10 10 -15 -2 -22 -25 -16 -31 -11 -28 23 3 29 6 32 43 36 l40
5 -45 6 c-42 6 -42 7 -10 8 19 1 44 -1 55 -4z m790 -182 c-13 -14 -16 13 -8
85 l8 78 3 -79 c2 -43 0 -81 -3 -84z m22 25 c-2 -23 -3 -1 -3 48 0 50 1 68 3
42 2 -26 2 -67 0 -90z m-1283 -29 c4 -79 4 -151 1 -160 -5 -13 -18 -18 -46
-18 l-39 0 0 160 0 160 39 0 38 0 7 -142z m-5257 106 c-3 -3 -12 -4 -19 -1 -8
3 -5 6 6 6 11 1 17 -2 13 -5z m6140 -71 c-3 -10 -5 -2 -5 17 0 19 2 27 5 18 2
-10 2 -26 0 -35z m-6577 2 c0 -24 2 -25 39 -19 24 4 41 2 45 -5 5 -7 -8 -11
-38 -11 l-46 0 0 -81 c0 -71 2 -80 18 -77 12 2 18 14 20 41 3 29 7 37 23 37
14 0 19 7 19 30 0 25 4 30 24 30 14 0 36 4 50 10 25 9 26 8 26 -23 0 -24 3
-28 10 -17 8 12 10 12 16 -3 3 -9 4 -24 0 -32 -5 -15 -13 -16 -85 -19 -28 -1
-34 -5 -38 -26 -2 -14 -10 -30 -19 -37 -14 -10 -13 -12 3 -22 15 -8 10 -10
-24 -11 -28 0 -43 5 -44 13 0 6 -4 3 -9 -8 -4 -12 -8 36 -9 118 -1 88 2 137 9
137 5 0 10 -11 10 -25z m8273 -37 c-2 -5 -12 -8 -21 -8 -13 0 -14 2 -4 9 8 4
13 14 12 22 -5 31 3 42 9 14 4 -16 6 -33 4 -37z m-8068 -7 c3 -5 1 -12 -5 -16
-5 -3 -10 1 -10 9 0 18 6 21 15 7z m6709 -6 c-4 -8 -12 -15 -20 -15 -8 0 -14
7 -14 15 0 8 9 15 20 15 13 0 18 -5 14 -15z m-854 -75 c0 -5 -2 -10 -4 -10 -3
0 -8 5 -11 10 -3 6 -1 10 4 10 6 0 11 -4 11 -10z m827 -52 c-2 -13 -4 -3 -4
22 0 25 2 35 4 23 2 -13 2 -33 0 -45z m90 20 c-3 -8 -6 -5 -6 6 -1 11 2 17 5
13 3 -3 4 -12 1 -19z m-7241 -12 c3 -13 4 -38 2 -57 l-3 -34 -67 1 -68 1 0
-42 c0 -41 -1 -43 -37 -49 -71 -11 -73 -10 -73 40 l0 46 31 -7 c19 -4 41 -2
55 6 21 11 24 20 24 66 l0 53 65 0 c60 0 65 -2 71 -24z m718 -7 c12 -61 7 -84
-24 -109 -16 -14 -29 -31 -30 -38 0 -7 -12 -17 -27 -23 -16 -6 -30 -11 -33
-12 -6 -3 -11 185 -5 200 3 8 24 13 58 13 53 0 55 -1 61 -31z m6523 -76 c-2
-16 -4 -3 -4 27 0 30 2 43 4 28 2 -16 2 -40 0 -55z m-917 17 c0 -22 -4 -40
-10 -40 -5 0 -10 18 -10 40 0 22 5 40 10 40 6 0 10 -18 10 -40z m520 0 c0 -22
-4 -40 -10 -40 -5 0 -10 18 -10 40 0 22 5 40 10 40 6 0 10 -18 10 -40z m360 0
c0 -22 -4 -40 -10 -40 -5 0 -10 18 -10 40 0 22 5 40 10 40 6 0 10 -18 10 -40z
m-7580 -61 l0 -60 -59 2 -59 2 -5 51 c-3 28 -3 54 0 59 2 4 31 7 64 7 l59 0 0
-61z m6336 -64 c10 -40 -1 -55 -41 -55 -48 0 -50 2 -47 30 5 44 11 50 46 50
30 0 37 -4 42 -25z m883 -122 c1 -25 -3 -33 -17 -33 -14 0 -18 9 -19 40 -1 22
2 40 8 40 5 0 10 19 10 43 l2 42 7 -50 c5 -27 9 -65 9 -82z m381 87 c0 -22 -4
-40 -10 -40 -11 0 -14 63 -3 73 11 12 13 8 13 -33z m-73 -22 c-2 -13 -4 -5 -4
17 -1 22 1 32 4 23 2 -10 2 -28 0 -40z m-7574 16 c4 -8 17 -14 27 -14 11 0 20
-4 20 -9 0 -10 -100 -35 -107 -27 -2 2 -1 20 3 40 5 32 9 36 28 30 11 -4 25
-13 29 -20z m7563 -121 c8 -8 22 -12 32 -10 14 4 14 6 -5 12 -34 11 -29 41 8
49 17 3 35 3 40 0 13 -8 11 -38 -3 -53 -11 -11 -8 -12 12 -7 21 6 22 5 7 -4
-9 -6 -39 -10 -65 -8 l-47 3 -1 55 c-1 37 0 42 3 16 2 -21 11 -45 19 -53z
m-7419 35 c-3 -8 -6 -5 -6 6 -1 11 2 17 5 13 3 -3 4 -12 1 -19z m20 0 c-3 -8
-6 -5 -6 6 -1 11 2 17 5 13 3 -3 4 -12 1 -19z m3 -49 c0 -5 -4 -9 -8 -9 -5 0
-9 7 -9 15 0 8 4 12 9 9 4 -3 8 -9 8 -15z m6207 -3 c3 -3 7 -28 9 -55 3 -57
-4 -66 -53 -66 l-33 0 0 62 c0 50 3 62 18 66 19 4 52 0 59 -7z m2907 -47 c15
-75 12 -79 -53 -79 -63 0 -71 7 -71 71 0 35 6 39 65 39 51 0 53 -1 59 -31z
m-2532 -39 c1 -32 0 -56 -3 -52 -10 12 -19 112 -9 112 4 0 10 -27 12 -60z
m-6712 -10 c0 -33 -3 -40 -20 -40 -11 0 -20 6 -20 13 0 7 -3 8 -8 2 -10 -13
-32 -17 -32 -6 0 6 6 13 13 18 12 7 16 9 36 12 5 0 11 10 14 21 8 33 17 23 17
-20z m6637 8 c-3 -7 -5 -2 -5 12 0 14 2 19 5 13 2 -7 2 -19 0 -25z m56 -20 c5
-53 3 -67 -9 -55 -12 11 -17 107 -7 107 6 0 13 -24 16 -52z m2057 22 c0 -5 -5
-10 -11 -10 -5 0 -7 5 -4 10 3 6 8 10 11 10 2 0 4 -4 4 -10z m-8843 -42 c-3
-8 -6 -5 -6 6 -1 11 2 17 5 13 3 -3 4 -12 1 -19z m7610 -30 c-3 -8 -6 -5 -6 6
-1 11 2 17 5 13 3 -3 4 -12 1 -19z m33 18 c0 -3 -4 -8 -10 -11 -5 -3 -10 -1
-10 4 0 6 5 11 10 11 6 0 10 -2 10 -4z m1550 -87 c0 -5 -12 -8 -27 -8 -18 1
-21 3 -10 6 9 2 15 9 12 14 -3 5 1 6 9 3 9 -3 16 -10 16 -15z m-1497 -6 c-7
-2 -21 -2 -30 0 -10 3 -4 5 12 5 17 0 24 -2 18 -5z m-7591 -85 l3 -63 50 -7
c79 -12 91 -6 88 44 -3 39 -2 41 9 20 9 -17 17 -22 32 -17 47 15 60 11 66 -20
4 -23 11 -31 30 -33 14 -2 29 -8 34 -13 6 -5 28 -8 50 -7 l41 1 -45 7 c-37 6
-30 7 43 8 l88 2 -3 -47 -3 -48 -183 -3 -184 -2 4 -65 3 -65 -105 0 -105 0 3
48 4 47 39 -3 c25 -3 39 -9 39 -18 0 -16 5 -17 48 -8 25 5 31 12 34 40 4 33
-4 44 -17 24 -3 -5 -47 -10 -97 -10 -76 0 -89 -2 -84 -15 4 -12 -6 -15 -57
-15 -57 1 -60 2 -43 15 19 15 19 15 -1 15 -12 0 -23 -8 -26 -17 -5 -25 -19 67
-15 103 3 28 5 29 66 32 l62 3 0 58 c0 32 3 61 7 64 3 4 32 7 64 7 l58 0 3
-62z m231 55 c-7 -2 -21 -2 -30 0 -10 3 -4 5 12 5 17 0 24 -2 18 -5z m4547
-522 l0 -60 53 -3 52 -3 3 -112 3 -113 54 0 55 0 1 -45 c1 -25 2 -51 3 -57 1
-9 18 -12 59 -10 l57 3 2 -48 c0 -26 1 -55 2 -63 1 -11 15 -16 53 -18 50 -3
53 -4 59 -36 3 -18 4 -44 2 -57 -3 -21 -7 -23 -55 -20 l-53 2 -1 -33 c-1 -18
-2 -37 -4 -43 -1 -5 -3 -16 -3 -23 -2 -9 -17 -12 -54 -10 l-53 3 -3 58 -3 57
-339 0 -340 0 0 -59 0 -60 -52 -3 c-49 -3 -53 -5 -56 -30 -3 -27 -5 -28 -63
-28 l-59 0 0 36 0 36 -57 -4 -58 -3 0 50 1 50 56 3 57 3 3 57 c3 54 4 57 27
54 13 -2 39 -1 57 3 34 6 34 7 34 60 l0 54 58 3 57 3 3 58 3 57 54 0 55 0 0
58 0 57 101 3 c56 1 106 5 111 8 5 3 9 52 8 107 -1 56 -1 105 -1 110 1 4 26 7
56 7 l55 0 0 -59z m-4554 -82 c3 -5 8 -7 12 -5 4 2 6 -74 5 -170 -2 -142 0
-174 12 -174 7 0 15 6 18 13 2 6 7 9 11 5 4 -3 2 -16 -4 -28 -10 -18 -9 -21 2
-18 7 3 19 15 25 29 7 14 13 18 13 9 0 -13 1 -13 10 0 7 12 10 8 10 -15 0 -16
4 -37 9 -44 7 -10 8 0 6 30 l-4 44 9 -40 c5 -22 9 -53 9 -70 l1 -30 60 3 60 4
0 -111 0 -111 -247 0 -248 0 3 60 4 60 39 0 c28 0 39 4 39 15 0 11 -11 15 -41
15 l-42 0 7 46 c3 26 6 57 6 70 0 15 6 24 15 24 11 0 15 11 15 40 0 33 -3 40
-20 40 -13 0 -20 7 -20 20 0 17 7 20 40 20 22 0 40 -4 40 -10 0 -5 9 -10 20
-10 11 0 20 -4 20 -10 0 -5 9 -10 20 -10 11 0 20 5 20 10 0 6 -9 10 -20 10
-15 0 -20 7 -20 29 0 17 5 33 10 36 6 3 10 36 10 71 l0 66 -112 -3 c-106 -2
-113 -1 -110 17 2 19 2 19 -12 0 -16 -20 -18 -18 -29 57 l-4 28 173 -1 c96 -1
176 -6 180 -11z m6094 -149 l0 -150 -70 0 c-40 0 -70 4 -70 10 0 6 -19 9 -42
9 l-43 -2 35 -7 c30 -7 27 -8 -22 -7 l-58 0 2 146 2 146 3 -117 c2 -67 8 -118
13 -118 6 0 11 21 12 48 l1 47 7 -45 7 -45 1 43 c2 30 6 42 17 42 11 0 15 -11
15 -39 0 -31 4 -41 20 -46 32 -10 23 -23 -17 -28 l-38 -4 43 -1 42 -2 0 128
c0 71 3 132 7 135 3 4 35 7 70 7 l63 0 0 -150z m1318 -67 l3 -213 -41 0 -40 0
0 66 0 65 -192 -1 c-106 -1 -214 -1 -240 -1 l-48 1 0 150 0 150 278 -2 277 -3
3 -212z m876 195 c3 -13 6 -51 6 -85 0 -61 1 -63 26 -63 14 0 23 4 19 10 -3 6
-1 10 4 10 6 0 11 -4 11 -9 0 -5 10 -11 22 -13 20 -3 22 -8 19 -65 l-2 -62 58
-3 58 -3 3 -118 3 -118 -58 2 -58 3 -3 -52 -3 -52 60 0 61 0 0 -58 0 -58 -60
4 -60 4 0 -61 0 -61 60 0 60 0 0 -60 0 -60 -60 0 c-63 0 -75 -9 -37 -29 20
-10 20 -11 1 -6 -20 5 -21 1 -23 -105 l-2 -110 61 0 60 0 -5 -147 c-2 -82 -5
-160 -5 -175 0 -27 -2 -28 -55 -28 l-55 0 0 -65 0 -65 118 -1 c64 0 145 -1
180 -2 l62 -2 0 60 c0 33 0 218 -1 410 -2 580 -2 672 -1 883 l2 202 65 0 64 0
3 -62 3 -63 63 -3 c59 -3 63 -5 60 -25 -3 -19 -11 -23 -63 -27 l-60 -5 -3 -63
-3 -64 61 4 60 3 0 -37 0 -38 -60 0 -60 0 4 -42 4 -43 61 -3 61 -3 0 -54 0
-55 -59 0 c-56 0 -59 -1 -64 -27 -3 -15 -3 -42 0 -60 6 -33 6 -33 64 -33 l59
0 0 -60 0 -60 -64 0 -65 0 -3 -121 c-2 -67 0 -123 3 -125 4 -2 66 -5 138 -6
l131 -2 0 -53 0 -53 -65 0 c-51 0 -67 -4 -72 -16 -5 -13 -7 -13 -14 -2 -7 10
-9 10 -9 1 0 -7 -5 -13 -11 -13 -5 0 -8 3 -6 8 3 4 -16 5 -41 3 -26 -2 -40 -6
-32 -9 8 -3 19 -10 23 -16 6 -8 10 -7 14 2 2 6 11 12 19 12 9 0 13 -4 10 -8
-2 -4 0 -14 6 -22 8 -12 9 -12 4 3 -3 9 -1 17 4 17 6 0 10 -8 11 -17 0 -15 2
-15 9 2 6 13 8 -18 7 -85 l-2 -105 -60 0 -60 0 -3 -62 -3 -63 143 -1 c131 -2
262 0 313 3 11 0 39 0 63 -1 l43 -1 -3 -57 -3 -58 -635 -3 -635 -2 3 -65 4
-64 51 -3 52 -3 5 -65 5 -65 58 -3 57 -3 0 -169 0 -170 48 0 49 0 6 -180 c3
-99 10 -187 16 -197 10 -17 10 -17 11 1 0 11 3 16 7 13 3 -4 6 -26 6 -49 0
-24 2 -33 4 -20 2 12 9 22 15 22 6 0 8 9 5 21 -4 16 -3 18 9 8 7 -6 11 -15 8
-20 -3 -5 0 -9 6 -9 6 0 10 -10 8 -22 -2 -19 -10 -24 -45 -26 l-43 -3 -2 -222
-3 -222 -52 3 -53 3 0 -540 0 -541 -60 0 -60 0 0 65 0 65 -61 0 -61 0 4 530
c3 548 5 574 42 537 9 -9 16 -20 16 -25 0 -5 8 -20 19 -33 10 -13 21 -33 24
-44 2 -11 5 108 6 265 l1 285 -56 -4 -57 -3 7 32 c3 18 6 71 6 119 l0 86 52 0
53 0 0 60 0 60 -51 3 -51 3 -7 67 c-3 37 -6 84 -6 105 l0 37 60 0 60 0 0 58 0
57 -60 -3 c-55 -4 -60 -2 -60 17 0 22 -2 23 -65 25 l-40 1 -6 70 c-4 39 -5 89
-3 111 l4 42 -251 7 -250 7 4 52 5 51 121 0 121 0 0 773 0 772 180 0 180 0 0
90 0 90 59 0 c52 0 59 -2 65 -22z m184 5 c-10 -2 -28 -2 -40 0 -13 2 -5 4 17
4 22 1 32 -1 23 -4z m-2591 -29 c-3 -3 -12 -4 -19 -1 -8 3 -5 6 6 6 11 1 17
-2 13 -5z m2620 -66 c-2 -13 -4 -5 -4 17 -1 22 1 32 4 23 2 -10 2 -28 0 -40z
m-5339 -82 c-3 -57 -9 -109 -12 -115 -4 -6 -29 -11 -57 -11 l-49 0 0 115 0
115 61 0 62 0 -5 -104z m-2900 -13 l-3 -108 -52 -3 -53 -3 0 110 0 111 55 0
56 0 -3 -107z m8062 57 c0 -5 -5 -10 -11 -10 -5 0 -7 5 -4 10 3 6 8 10 11 10
2 0 4 -4 4 -10z m-2383 -62 c-2 -13 -4 -3 -4 22 0 25 2 35 4 23 2 -13 2 -33 0
-45z m407 25 c7 1 12 -20 14 -55 l3 -58 -66 0 -65 0 0 64 0 63 51 -8 c28 -5
57 -7 63 -6z m3096 -289 c0 -240 -2 -288 -15 -300 -8 -9 -15 -11 -15 -5 0 6
-21 11 -50 11 l-50 0 0 -59 0 -59 58 1 c31 1 60 6 64 11 5 6 7 -155 5 -359
l-2 -370 -65 0 -65 0 -5 135 c-3 74 -4 393 -2 708 l4 572 69 0 69 0 0 -286z
m-6906 250 c8 -20 8 -522 0 -551 -6 -22 -12 -23 -90 -23 l-84 0 0 295 0 295
84 0 c67 0 85 -3 90 -16z m4996 -121 c0 -28 -3 -34 -10 -23 -13 20 -13 60 0
60 6 0 10 -17 10 -37z m-4492 -35 l-3 -53 -58 -3 -58 -3 3 -127 3 -127 58 -3
58 -3 -3 -107 -3 -107 -177 0 c-109 0 -179 4 -182 10 -2 6 -3 137 -3 293 l0
282 184 0 184 0 -3 -52z m4492 -42 c8 -2 -14 -4 -50 -5 -36 0 -59 3 -53 7 12
7 65 6 103 -2z m-570 -56 l0 -60 -625 0 c-410 0 -625 3 -626 10 0 6 0 30 0 55
0 25 0 47 0 50 1 3 282 5 626 5 l625 0 0 -60z m-1376 24 c3 -9 6 -35 6 -59 l0
-44 53 -3 52 -3 0 -165 0 -165 -52 0 -52 1 -3 -56 -3 -55 -111 -3 -112 -3 -7
-108 -7 -109 -44 1 c-25 0 -47 4 -50 9 -3 4 1 8 8 8 9 0 10 3 2 8 -7 4 -13 78
-16 214 l-5 206 46 4 c25 3 52 0 59 -5 6 -5 12 -31 12 -58 l0 -49 60 0 60 0
-2 168 -3 167 -57 3 -58 3 0 54 0 55 109 0 c90 0 110 -3 115 -16z m2084 -169
c2 -33 0 -79 -3 -102 l-6 -43 -55 0 -54 0 0 105 0 106 57 -3 58 -3 3 -60z
m-4146 -202 l3 -58 118 -3 117 -3 0 -160 0 -159 -177 2 -178 3 -3 58 -3 57
-54 0 -55 0 0 155 0 154 63 4 c34 2 85 4 114 5 l52 2 3 -57z m4138 -414 c0
-187 -1 -342 -2 -346 -2 -5 -25 -8 -53 -8 l-50 0 -3 347 -3 347 28 3 c15 2 40
1 56 -1 l27 -3 0 -339z m-1580 151 c0 -41 4 -60 13 -61 6 -1 39 -2 72 -3 l60
-1 6 -65 c4 -36 8 -110 9 -165 1 -55 4 -92 7 -82 5 21 43 23 43 2 0 -18 36
-20 43 -2 3 6 6 -70 6 -170 l1 -182 -57 -3 -58 -3 1 -57 1 -57 -71 -3 -71 -3
-3 -122 -3 -123 -129 0 -130 0 0 -60 0 -60 -60 0 -60 0 0 -60 0 -60 -55 0 -55
0 0 -60 0 -60 -55 0 -55 0 0 58 c0 32 -2 61 -4 63 -2 2 -32 2 -65 1 l-61 -4 0
-59 0 -59 -55 0 -55 0 0 -60 0 -60 -60 0 -60 0 0 -61 0 -60 -110 2 -110 3 0
53 c0 46 3 54 18 52 9 -1 36 -1 60 0 l42 1 0 60 0 59 58 3 c56 3 57 4 58 33 1
87 -1 84 57 87 56 3 54 0 56 76 l1 42 55 0 55 0 0 55 0 55 60 0 c33 0 60 4 60
10 0 6 27 10 60 10 l60 0 0 60 0 60 55 -6 55 -7 0 54 c0 74 7 81 71 78 l54 -3
3 62 3 62 54 0 c63 0 58 -12 57 138 l-1 82 65 0 65 0 -3 123 -3 122 -57 -3
-56 -4 -7 121 -8 121 -118 0 -119 0 0 50 0 50 185 0 185 0 0 -60z m257 -307
c-2 -21 -4 -4 -4 37 0 41 2 58 4 38 2 -21 2 -55 0 -75z m-5824 30 c-35 -2 -91
-2 -125 0 -35 2 -7 3 62 3 69 0 97 -1 63 -3z m4839 -243 c-2 -8 -1 -34 3 -57
l6 -42 52 -3 51 -3 -1 -165 c-1 -91 -2 -173 -2 -182 -1 -15 -11 -18 -56 -18
l-55 0 0 -55 0 -55 -32 -2 c-18 -1 -44 -2 -58 -3 -26 -1 -27 -3 -29 -72 l-1
-43 -55 0 -55 0 0 -60 0 -59 -57 -3 -58 -3 3 -57 c4 -64 -8 -78 -72 -78 l-35
0 -3 -52 -3 -53 -62 -3 -63 -3 -1 -77 c-1 -42 -1 -116 1 -164 l2 -88 -65 0
c-35 0 -85 -3 -110 -6 l-46 -7 -3 114 -3 114 -52 3 -53 3 0 120 0 119 -55 0
c-67 0 -67 -1 -63 170 l3 125 58 3 57 3 0 84 0 85 55 0 c54 0 55 -1 55 -29 0
-16 3 -43 6 -60 7 -31 8 -32 58 -29 l51 3 0 58 -1 57 58 0 58 0 0 65 0 65 115
0 115 0 0 55 0 54 63 3 62 3 1 115 c1 63 2 117 3 120 1 3 49 5 109 5 88 -1
106 -3 104 -15z m4055 -82 c-3 -8 -6 -5 -6 6 -1 11 2 17 5 13 3 -3 4 -12 1
-19z m-5657 -269 l0 -121 55 4 54 3 3 -115 3 -115 57 -3 57 -3 3 -62 3 -62 55
0 55 0 3 -113 3 -112 -50 0 -50 0 -3 58 -3 57 -55 0 -55 0 -5 60 -5 60 -55 1
-55 1 -3 61 -3 62 -59 0 -60 0 0 230 0 230 55 0 55 0 0 -121z m787 29 c-3 -8
-6 -5 -6 6 -1 11 2 17 5 13 3 -3 4 -12 1 -19z m4453 -438 c0 -47 -3 -60 -15
-60 -12 0 -15 -20 -15 -120 l0 -120 -50 0 -50 0 -1 -422 c-1 -233 -4 -413 -6
-400 -4 19 -11 22 -49 22 l-44 0 -1 -187 c0 -104 0 -211 1 -239 1 -29 -3 -55
-9 -59 -6 -3 -11 -33 -11 -67 l0 -60 -50 4 -49 3 -3 -60 -3 -60 -60 0 -60 0
-3 183 -2 182 60 0 60 0 0 241 0 241 53 -4 52 -3 3 108 3 107 -48 -2 -48 -1
45 -6 c35 -5 40 -8 23 -13 -28 -8 -30 -28 -4 -28 14 0 19 -6 18 -20 -1 -17 -8
-20 -48 -20 l-46 0 -2 400 -2 400 50 0 51 0 0 60 0 60 130 0 130 0 0 -60z
m-2160 -120 l0 -60 60 0 60 0 0 -42 c0 -84 10 -116 39 -124 39 -11 45 -11 59
-1 9 7 12 0 12 -29 l0 -39 -52 0 -53 0 -5 -63 c-3 -34 -8 -62 -12 -62 -5 0
-30 0 -58 0 l-50 0 0 -60 c0 -74 -3 -73 200 -68 l151 4 -1 -211 c0 -115 -1
-222 0 -237 0 -27 1 -28 60 -28 l59 0 0 -177 c-1 -97 -3 -183 -6 -190 -4 -9
-15 -12 -38 -7 -58 11 -75 -1 -75 -52 l0 -44 -60 0 -60 0 0 -55 0 -55 53 -1
c28 -1 55 -1 60 0 4 0 8 -14 9 -31 2 -51 5 -82 6 -93 1 -6 27 -9 62 -7 l60 4
0 159 0 159 45 0 45 0 1 -175 c1 -96 2 -190 3 -207 l1 -33 -55 0 -55 0 0 -105
0 -105 60 0 60 0 3 58 3 57 179 0 180 0 0 -60 0 -60 -114 0 -115 0 -3 -52 -3
-53 -177 -3 -177 -2 -3 -58 -3 -57 -175 -5 -175 -5 3 -57 4 -58 -56 0 -55 0
-3 57 -3 58 -35 1 c-84 2 -80 -1 -80 54 l0 50 58 1 c31 1 74 0 94 -1 61 -3 78
13 78 70 l0 50 60 0 61 0 -3 103 -3 102 -56 3 c-61 3 -69 -4 -69 -70 l0 -28
-115 0 -115 0 0 74 c0 40 3 87 6 104 6 30 9 31 63 34 53 3 56 4 59 31 3 28 5
29 55 25 l52 -3 3 103 3 102 -63 0 -63 0 5 -65 5 -65 -62 0 -63 0 0 53 c0 28
4 58 9 65 4 7 32 16 62 19 l54 5 -1 57 c-1 39 -6 56 -15 57 -8 1 -64 2 -124 3
l-110 1 0 165 0 165 63 0 62 0 1 68 c0 37 4 89 7 116 l7 50 55 0 55 1 0 55 0
55 -67 3 -68 3 0 -56 0 -55 -60 0 -60 0 0 -110 0 -110 -66 0 c-53 0 -65 3 -61
14 6 16 9 124 8 344 l-1 142 -49 0 c-76 0 -80 -3 -74 -65 3 -29 2 -91 -2 -139
l-7 -86 -69 0 -69 0 0 -158 0 -158 -68 4 -69 4 -6 -68 c-4 -38 -7 -200 -7
-361 l0 -292 -67 -3 -68 -3 -3 -63 -3 -63 -102 2 -102 2 -5 -111 -5 -110 -165
2 -165 1 0 58 1 57 -48 0 -48 0 0 625 c0 344 3 624 8 624 4 -1 76 -1 160 0
l152 1 0 125 0 125 125 0 125 0 0 33 c0 67 7 76 63 79 l51 3 -3 58 -3 59 59
-3 58 -3 3 67 3 67 127 1 c70 1 133 1 140 0 9 -1 12 28 12 119 l0 120 300 0
300 0 0 -60z m1210 -60 l0 -120 -60 0 -60 0 0 120 0 120 60 0 60 0 0 -120z
m-4415 80 c3 -5 1 -10 -4 -10 -6 0 -11 5 -11 10 0 6 2 10 4 10 3 0 8 -4 11
-10z m-1261 -85 c-4 -8 2 -27 11 -42 17 -25 17 -26 -1 -37 -17 -9 -16 -11 11
-17 17 -4 -232 -7 -552 -8 l-583 -1 0 60 0 60 560 0 c494 0 559 -2 554 -15z
m3095 -9 c7 -8 11 -32 9 -53 l-3 -38 -53 -3 -53 -3 3 48 c3 46 4 48 38 54 19
4 38 7 41 8 4 0 12 -5 18 -13z m3750 -43 c-1 -27 -1 -52 1 -58 1 -5 1 -248 0
-540 l-1 -530 54 -1 54 -2 7 106 c3 58 6 205 6 326 0 122 3 258 7 304 l6 82
42 0 c36 0 44 -4 49 -22 3 -13 6 -217 6 -455 l0 -432 -52 -3 -53 -3 -5 -60 -5
-60 -52 0 -53 1 -1 -68 c-1 -37 -3 -72 -4 -78 -1 -5 -3 -28 -4 -50 l-1 -40
-50 0 -50 0 -1 -57 c0 -50 -16 -122 -18 -85 -1 7 -5 10 -11 7 -5 -3 -10 -1
-10 5 0 6 -6 10 -12 9 -7 -1 -28 -1 -45 0 l-33 1 0 120 0 120 61 0 61 0 -4 90
c-2 55 1 90 7 91 6 0 34 0 63 -1 l53 -2 -3 49 -3 48 -55 5 -55 5 -3 510 c-2
281 0 556 3 613 l7 102 50 0 49 0 -2 -47z m-6732 -45 c-3 -8 -6 -5 -6 6 -1 11
2 17 5 13 3 -3 4 -12 1 -19z m6957 -34 c3 -9 6 -35 6 -59 0 -48 -8 -53 -67
-47 l-33 4 0 59 0 59 44 0 c31 0 46 -5 50 -16z m-6219 -194 c-3 -5 -10 -10
-16 -10 -5 0 -9 5 -9 10 0 6 7 10 16 10 8 0 12 -4 9 -10z m-1185 -46 c0 -12
-3 -14 -13 -6 -7 6 -30 12 -52 15 -36 3 -35 4 13 5 42 2 52 -1 52 -14z m260
-14 c0 -22 -6 -33 -22 -40 -18 -7 -19 -9 -5 -9 9 -1 17 -6 17 -11 0 -7 -22
-10 -57 -8 l-56 3 -4 48 -4 47 65 0 66 0 0 -30z m2710 -970 l0 -990 -70 0 -70
0 0 245 0 245 -44 0 c-25 0 -48 -4 -51 -10 -3 -5 -6 -32 -7 -60 l0 -50 -161 0
-162 0 -2 601 -1 600 51 -3 52 -3 5 -60 c5 -56 7 -60 30 -61 14 0 82 -1 152
-2 123 -2 127 -3 131 -24 2 -13 5 109 6 270 l1 292 70 0 70 0 0 -990z m2780
720 l0 -160 -61 0 -61 0 3 98 4 97 -57 3 -58 3 0 59 0 60 115 0 115 0 0 -160z
m128 -288 l3 -122 59 0 60 0 0 -180 0 -180 -60 0 -60 0 0 65 0 65 -65 0 -65 0
0 234 0 235 23 4 c12 3 40 4 62 3 l40 -2 3 -122z m-1558 -72 l0 -40 -55 0
c-48 0 -55 2 -55 20 0 11 4 20 10 20 5 0 7 -7 4 -15 -5 -12 3 -15 40 -15 46 0
46 0 46 35 0 19 2 35 5 35 3 0 5 -18 5 -40z m2472 -363 c-7 -8 -8 -17 -4 -22
4 -4 -3 -3 -14 3 -12 6 -25 8 -29 4 -5 -4 -5 -1 -1 6 5 7 14 11 22 8 8 -3 17
1 21 10 3 8 8 13 11 10 3 -3 0 -12 -6 -19z m28 -17 c0 -5 -5 -10 -11 -10 -5 0
-7 5 -4 10 3 6 8 10 11 10 2 0 4 -4 4 -10z m507 -442 c-2 -13 -4 -3 -4 22 0
25 2 35 4 23 2 -13 2 -33 0 -45z m76 54 c3 7 5 0 5 -17 0 -16 -2 -25 -4 -18
-3 7 -12 9 -20 6 -9 -3 -14 2 -14 17 0 18 3 20 14 11 11 -9 15 -9 19 1z m-412
-65 c-8 -8 -11 -3 -11 19 1 25 2 27 11 11 8 -14 8 -22 0 -30z m394 4 c3 -5 1
-12 -5 -16 -5 -3 -10 1 -10 9 0 18 6 21 15 7z m22 -23 c-3 -7 -5 -2 -5 12 0
14 2 19 5 13 2 -7 2 -19 0 -25z m-412 -8 c3 -5 2 -10 -4 -10 -5 0 -13 5 -16
10 -3 6 -2 10 4 10 5 0 13 -4 16 -10z m335 0 c0 -5 -4 -10 -10 -10 -5 0 -10 5
-10 10 0 6 5 10 10 10 6 0 10 -4 10 -10z m39 -40 c2 39 4 42 12 22 5 -13 13
-20 19 -17 6 4 10 -8 10 -30 0 -20 -4 -34 -9 -30 -5 3 -12 1 -15 -4 -4 -5 2
-12 11 -14 14 -4 13 -5 -4 -6 -15 -1 -23 5 -24 17 -1 15 -2 14 -6 -2 -4 -15
-7 -16 -14 -5 -6 10 -9 10 -9 2 0 -7 -4 -13 -10 -13 -13 0 -13 57 -1 65 5 3
12 -3 14 -12 3 -10 6 5 7 32 l3 50 7 -50 7 -50 2 45z m-6813 -167 c-3 -6 0
-14 7 -17 7 -3 3 -5 -8 -3 -22 2 -32 45 -20 75 6 13 9 11 16 -13 5 -16 7 -35
5 -42z m6612 61 c-3 -3 -19 -6 -34 -7 -21 -2 -28 -8 -26 -20 2 -11 -2 -15 -13
-11 -8 3 -15 15 -15 25 0 16 8 19 47 19 25 0 44 -2 41 -6z m-68 -82 c0 -21 -2
-24 -10 -12 -13 20 -13 53 0 45 6 -3 10 -18 10 -33z m65 8 c-3 -5 -12 -10 -18
-10 -7 0 -6 4 3 10 19 12 23 12 15 0z m-5799 -105 c1 -49 2 -159 3 -242 l1
-153 455 0 454 0 3 -62 3 -63 118 -3 117 -3 1 -49 c1 -28 2 -56 3 -62 1 -10
77 -14 339 -16 l337 -2 1 -45 c1 -25 2 -51 3 -57 1 -9 22 -14 59 -16 l57 -3 0
-59 0 -60 55 0 55 0 -2 -177 -3 -178 -337 -2 -338 -3 0 60 0 59 -169 -6 -170
-6 -3 64 -3 64 -55 0 -55 0 3 62 4 62 -116 0 -116 1 0 -60 0 -60 -55 0 -54 0
-3 -62 -3 -63 -57 -3 -58 -3 0 -54 0 -55 -57 0 -58 0 -3 120 -3 120 61 0 60 0
0 60 0 60 38 2 c20 0 47 0 60 -1 22 -2 23 1 20 61 l-3 63 -85 3 c-47 2 -99 0
-117 -3 -31 -6 -32 -7 -35 -63 l-3 -57 -57 -3 -58 -3 0 -124 0 -125 -60 0 -60
0 0 -55 0 -55 -55 0 -55 0 0 245 0 245 -60 0 c-55 0 -60 -2 -61 -22 0 -13 -2
-43 -3 -68 -2 -25 -4 -73 -5 -108 l-1 -63 -55 6 -55 7 0 -66 0 -66 -60 0 -60
0 -2 183 -3 182 -57 3 -58 3 -2 99 c-1 55 -2 112 -2 128 -1 26 1 27 62 30 l62
3 0 119 0 120 55 0 55 0 0 60 0 60 65 0 65 0 0 125 0 126 58 -3 57 -3 1 -90z
m3902 -82 l3 -63 -56 0 -56 0 2 58 c1 31 7 60 13 65 6 4 29 6 51 5 l40 -3 3
-62z m1090 -77 l-3 -111 -52 -3 -53 -3 0 114 0 114 55 0 56 -1 -3 -110z m1006
81 c6 14 9 13 21 -11 23 -44 19 -56 -17 -56 -32 0 -33 2 -33 40 0 33 2 37 11
25 10 -14 12 -14 18 2z m-45 -63 c2 -2 -63 -3 -145 -2 l-149 2 120 6 c110 5
163 3 174 -6z m-2633 -39 c1 -11 2 -39 3 -62 l1 -43 55 0 c60 0 56 5 59 -82 1
-13 6 -26 11 -30 6 -4 58 -8 116 -8 l106 0 2 -55 2 -55 -233 2 -233 3 1 118 2
117 -64 0 -64 0 0 60 0 61 118 -3 c109 -3 117 -4 118 -23z m467 -15 c0 -19 -1
-45 -2 -58 l-1 -22 -167 2 -168 3 0 50 c0 28 1 53 3 58 2 4 79 6 170 5 l167
-3 -2 -35z m323 27 c3 -3 7 -26 8 -50 l2 -45 -48 -4 -48 -3 0 57 0 57 40 -3
c23 -2 43 -6 46 -9z m-1639 -113 c-3 -3 -12 -4 -19 -1 -8 3 -5 6 6 6 11 1 17
-2 13 -5z m376 -1 c-56 -2 -151 -2 -210 0 -59 1 -13 3 102 3 116 0 164 -2 108
-3z m1048 -106 c-5 -5 -28 -7 -52 -5 l-44 3 -2 52 -2 52 47 3 47 3 7 -50 c4
-27 3 -54 -1 -58z m2039 -17 l0 -120 -55 0 -55 0 0 113 c0 63 3 117 7 120 3 4
28 7 55 7 l48 0 0 -120z m-3483 78 c-3 -7 -5 -2 -5 12 0 14 2 19 5 13 2 -7 2
-19 0 -25z m403 -8 c0 -41 -21 -57 -34 -24 -13 34 -7 64 14 64 17 0 20 -7 20
-40z m85 7 c-4 -18 -2 -44 4 -59 10 -26 14 -27 68 -25 40 1 58 -2 59 -10 1 -7
2 -64 3 -125 l1 -113 66 3 65 4 -3 -59 -3 -58 -100 -2 c-55 -1 -110 -2 -122
-3 -21 0 -23 -5 -23 -61 l0 -60 -57 2 -58 3 -3 -57 -3 -57 -37 0 c-20 0 -54
-3 -74 -6 l-38 -7 0 122 0 121 -65 0 -65 0 0 65 0 65 -61 0 -61 0 4 60 c2 35
-1 61 -7 61 -5 1 -34 1 -62 -1 l-53 -2 0 64 0 64 68 0 c39 -1 66 3 65 9 -2 12
219 13 330 1 55 -6 77 -5 77 3 0 6 7 11 16 11 9 0 14 6 11 13 -5 12 40 67 55
67 5 0 6 -15 3 -33z m-408 -43 c-3 -3 -12 -4 -19 -1 -8 3 -5 6 6 6 11 1 17 -2
13 -5z m1462 -84 c-2 -27 -6 -50 -11 -50 -4 0 -8 6 -9 13 0 10 -2 10 -6 0 -2
-7 -17 -13 -33 -13 -21 0 -27 4 -25 18 2 9 4 32 4 50 1 31 3 32 41 32 l41 0
-2 -50z m-1693 -84 c2 -1 13 -107 14 -123 0 -9 17 -13 50 -13 54 0 56 -2 62
-75 3 -29 5 -30 51 -30 56 1 51 22 47 -200 l0 -30 -160 0 -160 -1 -2 36 c-1
19 -2 46 -3 60 -1 23 -4 25 -62 28 l-61 3 5 59 5 60 -61 0 -61 0 0 60 0 60
-55 0 -55 0 0 59 0 60 223 -6 c122 -3 223 -6 223 -7z m3312 -54 l-3 -57 -62
-3 -63 -3 0 63 0 63 65 -3 66 -4 -3 -56z m-6098 -247 l0 -55 -244 0 c-227 0
-244 1 -241 18 2 9 4 34 4 55 l1 37 240 0 240 0 0 -55z m5600 -600 l0 -55 -60
0 -60 0 0 55 0 55 60 0 60 0 0 -55z m-185 -134 c-3 -6 -11 -11 -16 -11 -5 0
-4 6 3 14 14 16 24 13 13 -3z m-8634 -51 l319 0 0 -55 0 -55 180 0 180 0 0
-60 0 -60 440 0 440 0 0 55 0 55 55 0 c55 0 63 -6 56 -44 -1 -5 1 -22 4 -37
l7 -29 329 0 329 0 0 -55 0 -55 64 0 65 0 3 -52 3 -53 188 -3 188 -2 -3 -43
-3 -42 295 -2 c162 -2 463 -3 668 -3 l372 0 0 -56 0 -56 120 4 120 3 0 -56 c0
-37 -5 -59 -13 -62 -7 -2 -86 -2 -175 1 l-163 5 2 56 3 56 -301 3 -301 2 -6
-22 c-3 -13 -6 -38 -6 -55 l0 -33 -159 0 c-88 0 -166 -3 -175 -6 -14 -5 -16 3
-16 55 l0 61 -500 -2 -500 -3 0 53 0 52 -287 -2 -288 -3 0 -60 0 -60 278 2
277 1 0 -49 0 -49 -55 0 -55 0 -2 -171 -3 -172 -275 -1 -275 -1 -5 60 -5 60
-117 -3 -118 -2 0 60 0 60 -185 0 -185 0 0 59 0 60 -55 -6 -55 -6 0 62 0 61
-120 0 -120 0 0 45 0 45 -65 0 -65 0 0 50 0 51 -355 -3 -355 -3 0 234 0 234
31 -7 c17 -3 175 -6 350 -6z m4973 -581 c3 -17 6 -64 6 -105 l0 -73 -57 -3
-58 -3 -3 -58 -3 -58 -52 3 -52 3 -3 63 -3 63 -102 -2 -102 -2 -1 54 -1 54
-37 3 c-23 2 -36 8 -33 15 2 7 13 11 23 9 15 -2 14 2 -9 23 -28 25 -28 25 -5
26 23 1 23 1 -2 9 -14 4 87 8 231 9 l257 1 6 -31z m-513 -40 c-5 -13 -10 -18
-10 -11 -1 6 -6 12 -12 12 -5 0 -7 -4 -4 -10 4 -6 -1 -7 -12 -3 -15 6 -14 9
10 17 15 5 27 14 27 20 0 5 2 7 5 4 3 -3 1 -16 -4 -29z"/>
<path d="M9578 9433 c7 -3 16 -2 19 1 4 3 -2 6 -13 5 -11 0 -14 -3 -6 -6z"/>
<path d="M9523 9413 c9 -2 25 -2 35 0 9 3 1 5 -18 5 -19 0 -27 -2 -17 -5z"/>
<path d="M9605 9410 c3 -5 8 -10 11 -10 2 0 4 5 4 10 0 6 -5 10 -11 10 -5 0
-7 -4 -4 -10z"/>
<path d="M9465 9030 c-8 -13 65 -13 85 0 11 7 2 10 -32 10 -26 0 -50 -4 -53
-10z"/>
<path d="M7493 9720 c0 -25 2 -35 4 -22 2 12 2 32 0 45 -2 12 -4 2 -4 -23z"/>
<path d="M7520 9025 c0 -9 9 -15 23 -15 14 0 24 6 24 15 0 9 -10 15 -24 15
-14 0 -23 -6 -23 -15z"/>
<path d="M7501 9004 c0 -11 3 -14 6 -6 3 7 2 16 -1 19 -3 4 -6 -2 -5 -13z"/>
<path d="M7546 8952 c-3 -5 8 -9 25 -10 16 0 27 4 24 9 -8 11 -42 12 -49 1z"/>
<path d="M7596 8361 c-11 -4 -15 -10 -10 -13 5 -4 20 0 34 8 26 14 9 18 -24 5z"/>
<path d="M6272 9363 c-48 -6 -40 -37 11 -40 34 -3 37 -1 37 22 0 14 -3 24 -7
23 -5 0 -23 -3 -41 -5z"/>
<path d="M6323 9235 c0 -22 2 -30 4 -17 2 12 2 30 0 40 -3 9 -5 -1 -4 -23z"/>
<path d="M6233 9160 c0 -25 2 -35 4 -22 2 12 2 32 0 45 -2 12 -4 2 -4 -23z"/>
<path d="M6234 8880 c0 -91 2 -128 3 -82 2 45 2 119 0 165 -1 45 -3 8 -3 -83z"/>
<path d="M6322 8853 c-2 -111 -5 -133 -17 -133 -11 0 -15 -11 -15 -40 0 -28 4
-40 14 -40 18 0 29 123 24 255 -3 77 -4 70 -6 -42z"/>
<path d="M6225 8370 c3 -5 8 -10 11 -10 2 0 4 5 4 10 0 6 -5 10 -11 10 -5 0
-7 -4 -4 -10z"/>
<path d="M6298 8373 c7 -3 16 -2 19 1 4 3 -2 6 -13 5 -11 0 -14 -3 -6 -6z"/>
<path d="M6273 8353 c9 -2 25 -2 35 0 9 3 1 5 -18 5 -19 0 -27 -2 -17 -5z"/>
<path d="M501 8943 c-1 -12 -7 -24 -13 -26 -10 -4 -9 -8 2 -16 22 -15 31 0 21
34 -7 24 -9 25 -10 8z"/>
<path d="M541 8784 c0 -11 3 -14 6 -6 3 7 2 16 -1 19 -3 4 -6 -2 -5 -13z"/>
<path d="M1278 8873 c7 -3 16 -2 19 1 4 3 -2 6 -13 5 -11 0 -14 -3 -6 -6z"/>
<path d="M668 8056 c-6 -14 -8 -32 -4 -42 6 -16 8 -15 29 3 12 11 29 23 37 26
9 3 10 6 3 6 -7 1 -13 8 -13 16 0 25 -39 17 -52 -9z"/>
<path d="M610 8010 c0 -5 7 -10 15 -10 8 0 15 5 15 10 0 6 -7 10 -15 10 -8 0
-15 -4 -15 -10z"/>
<path d="M690 7980 c30 -5 61 -4 70 1 10 5 -10 8 -55 7 l-70 0 55 -8z"/>
<path d="M571 7883 c0 -31 2 -34 9 -18 12 28 12 55 0 55 -5 0 -10 -17 -9 -37z"/>
<path d="M480 7850 c0 -5 12 -10 28 -10 21 0 24 2 12 10 -20 13 -40 13 -40 0z"/>
<path d="M372 7550 c0 -14 2 -19 5 -12 2 6 2 18 0 25 -3 6 -5 1 -5 -13z"/>
<path d="M563 7240 c0 -25 2 -35 4 -22 2 12 2 32 0 45 -2 12 -4 2 -4 -23z"/>
<path d="M801 7214 c0 -11 3 -14 6 -6 3 7 2 16 -1 19 -3 4 -6 -2 -5 -13z"/>
<path d="M788 7144 c-12 -11 -9 -21 7 -28 19 -7 45 3 45 17 0 7 -4 7 -12 -1
-16 -16 -26 -15 -30 4 -2 9 -6 12 -10 8z"/>
<path d="M808 7063 c6 -2 18 -2 25 0 6 3 1 5 -13 5 -14 0 -19 -2 -12 -5z"/>
<path d="M658 7033 c12 -2 32 -2 45 0 12 2 2 4 -23 4 -25 0 -35 -2 -22 -4z"/>
<path d="M928 7033 c7 -3 16 -2 19 1 4 3 -2 6 -13 5 -11 0 -14 -3 -6 -6z"/>
<path d="M6550 7320 c6 -11 12 -20 14 -20 2 0 2 9 -1 20 -3 11 -9 20 -15 20
-5 0 -4 -9 2 -20z"/>
<path d="M9178 6223 c7 -3 16 -2 19 1 4 3 -2 6 -13 5 -11 0 -14 -3 -6 -6z"/>
<path d="M9110 6209 c0 -5 9 -9 20 -9 11 0 20 2 20 4 0 2 -9 6 -20 9 -11 3
-20 1 -20 -4z"/>
<path d="M9602 6150 c0 -19 2 -27 5 -17 2 9 2 25 0 35 -3 9 -5 1 -5 -18z"/>
<path d="M9221 4704 c0 -11 3 -14 6 -6 3 7 2 16 -1 19 -3 4 -6 -2 -5 -13z"/>
<path d="M9270 4705 c0 -8 7 -15 16 -15 14 0 14 3 4 15 -7 8 -14 15 -16 15 -2
0 -4 -7 -4 -15z"/>
<path d="M928 7473 c6 -2 18 -2 25 0 6 3 1 5 -13 5 -14 0 -19 -2 -12 -5z"/>
<path d="M8283 6600 c0 -25 2 -35 4 -22 2 12 2 32 0 45 -2 12 -4 2 -4 -23z"/>
<path d="M8285 6405 c-4 -42 -5 -78 -2 -81 2 -3 8 29 12 71 4 42 5 79 2 81 -3
3 -8 -29 -12 -71z"/>
<path d="M8280 6226 c0 -8 5 -18 10 -21 6 -3 10 3 10 14 0 12 -4 21 -10 21 -5
0 -10 -6 -10 -14z"/>
<path d="M6218 5383 c7 -3 16 -2 19 1 4 3 -2 6 -13 5 -11 0 -14 -3 -6 -6z"/>
<path d="M7448 4653 c6 -2 18 -2 25 0 6 3 1 5 -13 5 -14 0 -19 -2 -12 -5z"/>
<path d="M7440 4610 c0 -5 18 -10 40 -10 22 0 40 5 40 10 0 6 -18 10 -40 10
-22 0 -40 -4 -40 -10z"/>
<path d="M7385 4480 c3 -5 8 -10 11 -10 2 0 4 5 4 10 0 6 -5 10 -11 10 -5 0
-7 -4 -4 -10z"/>
<path d="M6443 3723 c-7 -3 -13 -14 -13 -25 0 -15 5 -19 18 -16 10 3 41 2 70
-2 50 -6 52 -5 46 14 -4 12 -7 21 -8 22 -5 5 -104 11 -113 7z"/>
<path d="M6439 3550 c-8 -66 2 -93 19 -55 6 14 7 25 2 25 -5 0 -10 19 -12 43
l-3 42 -6 -55z"/>
<path d="M6540 3480 c0 -22 5 -40 10 -40 6 0 10 18 10 40 0 22 -4 40 -10 40
-5 0 -10 -18 -10 -40z"/>
<path d="M6385 3290 c-3 -5 -1 -10 4 -10 6 0 11 5 11 10 0 6 -2 10 -4 10 -3 0
-8 -4 -11 -10z"/>
<path d="M6201 3184 c0 -11 3 -14 6 -6 3 7 2 16 -1 19 -3 4 -6 -2 -5 -13z"/>
<path d="M3019 5003 c-10 -11 -10 -14 -1 -9 8 5 12 0 12 -13 0 -17 -6 -21 -32
-21 -18 0 -40 -5 -48 -10 -11 -7 0 -10 38 -10 l52 0 0 40 c0 45 -2 47 -21 23z"/>
<path d="M1971 4968 l-1 -28 77 0 c92 0 94 7 3 11 -56 2 -66 5 -72 23 -5 18
-6 17 -7 -6z"/>
<path d="M2880 4666 c0 -2 18 -6 40 -8 22 -2 40 0 40 4 0 5 -18 8 -40 8 -22 0
-40 -2 -40 -4z"/>
<path d="M2966 4645 c-9 -26 -7 -32 5 -12 6 10 9 21 6 23 -2 3 -7 -2 -11 -11z"/>
<path d="M5551 3984 c0 -11 3 -14 6 -6 3 7 2 16 -1 19 -3 4 -6 -2 -5 -13z"/>
<path d="M5554 3760 c0 -91 2 -128 3 -82 2 45 2 119 0 165 -1 45 -3 8 -3 -83z"/>
<path d="M5562 3250 c0 -19 2 -27 5 -17 2 9 2 25 0 35 -3 9 -5 1 -5 -18z"/>
<path d="M113 1004 c-2 -6 -3 -33 -1 -60 l3 -49 115 0 115 0 0 60 0 60 -114 1
c-79 0 -114 -3 -118 -12z"/>
<path d="M852 9983 l3 -68 58 -3 57 -3 0 71 0 70 -60 0 -61 0 3 -67z"/>
<path d="M3260 9863 l0 -113 -72 -2 c-40 -1 -95 -3 -123 -4 l-50 -1 -3 -106
-3 -107 -64 0 -65 0 0 -350 0 -350 675 0 675 0 0 65 0 65 -55 0 -55 0 -1 208
c-1 114 -3 216 -4 227 -1 11 -2 48 -3 83 l-2 62 -60 0 -60 0 0 105 0 105 -65
0 -65 0 0 116 0 116 -300 -3 -300 -4 0 -112z m360 -65 c0 -29 -5 -60 -10 -68
-6 -10 -10 -11 -10 -2 0 8 -16 12 -45 12 l-45 0 0 -74 c0 -69 1 -74 20 -69 21
6 25 -8 12 -37 -9 -18 -21 -22 -97 -29 l-60 -6 0 -55 0 -55 -63 -3 -62 -3 0
-63 c0 -49 -4 -65 -16 -70 -9 -3 -62 -6 -120 -6 -123 0 -116 -8 -112 145 l3
100 60 5 60 5 0 50 0 50 63 3 62 3 0 54 0 55 60 0 60 0 0 55 0 55 120 0 120 0
0 -52z m-1 -159 c1 -26 -2 -38 -9 -34 -12 7 -14 75 -2 75 4 0 9 -18 11 -41z
m-4 -318 c3 -5 1 -12 -5 -16 -5 -3 -10 1 -10 9 0 18 6 21 15 7z m-55 -17 c0
-2 -28 -3 -62 -2 l-63 1 50 6 c47 6 75 4 75 -5z m-323 -206 c-3 -8 -6 -5 -6 6
-1 11 2 17 5 13 3 -3 4 -12 1 -19z m-198 -120 c1 -10 -3 -18 -9 -18 -5 0 -10
19 -9 43 1 36 2 38 9 17 4 -14 8 -33 9 -42z m191 42 c0 -11 -4 -20 -10 -20 -5
0 -10 2 -10 4 0 2 -3 11 -6 20 -4 11 -1 16 10 16 9 0 16 -8 16 -20z"/>
<path d="M610 9845 l0 -65 55 0 55 0 0 65 0 65 -55 0 -55 0 0 -65z"/>
<path d="M1460 9491 c0 -67 -5 -71 -76 -71 -41 0 -44 -2 -44 -27 -1 -16 -3
-44 -6 -65 l-5 -36 58 -4 c32 -2 61 -3 66 -1 4 3 7 33 7 69 l0 64 54 0 54 0 4
55 c1 30 2 60 0 65 -2 6 -28 10 -58 10 l-54 0 0 -59z"/>
<path d="M180 8796 c0 -2 7 -6 15 -10 8 -3 15 -1 15 4 0 6 -7 10 -15 10 -8 0
-15 -2 -15 -4z"/>
<path d="M3549 8682 l-417 -2 -4 -23 c-3 -12 -4 -37 -3 -55 l2 -32 432 -3 432
-2 -3 59 c-2 33 -7 60 -13 60 -5 1 -197 0 -426 -2z"/>
<path d="M3870 8165 l0 -65 60 0 60 0 0 65 0 65 -60 0 -60 0 0 -65z"/>
<path d="M3145 7860 l-510 -5 1 -625 c1 -344 2 -734 3 -867 l1 -243 673 0 674
0 2 60 2 60 -616 2 -617 3 1 745 1 745 493 2 492 2 0 63 0 63 -45 0 c-25 0
-274 -2 -555 -5z"/>
<path d="M1613 7243 c64 -2 170 -2 235 0 64 1 11 3 -118 3 -129 0 -182 -2
-117 -3z"/>
<path d="M2228 6883 c17 -2 47 -2 65 0 17 2 3 4 -33 4 -36 0 -50 -2 -32 -4z"/>
<path d="M2448 6883 c12 -2 30 -2 40 0 9 3 -1 5 -23 4 -22 0 -30 -2 -17 -4z"/>
<path d="M4592 6186 l3 -51 113 -3 112 -3 0 56 0 55 -115 -2 -116 -1 3 -51z"/>
<path d="M4710 5940 l0 -60 160 0 160 0 1 33 c1 17 2 43 3 56 l1 24 -162 3
-163 3 0 -59z"/>
<path d="M4230 5860 c0 -6 7 -10 15 -10 8 0 15 2 15 4 0 2 -7 6 -15 10 -8 3
-15 1 -15 -4z"/>
<path d="M3634 4648 c-4 -6 -3 -8 4 -4 6 3 12 -3 15 -16 4 -20 4 -19 6 5 1 28
-12 36 -25 15z"/>
<path d="M4824 4360 c0 -69 1 -97 3 -62 2 34 2 90 0 125 -2 34 -3 6 -3 -63z"/>
<path d="M3550 4416 c0 -2 18 -6 40 -8 22 -2 40 0 40 4 0 5 -18 8 -40 8 -22 0
-40 -2 -40 -4z"/>
<path d="M3480 4230 l-35 -7 38 -2 c20 0 37 4 37 9 0 6 -1 9 -2 9 -2 -1 -19
-5 -38 -9z"/>
<path d="M3390 4222 c0 -5 7 -9 15 -9 8 0 15 4 15 9 0 4 -7 8 -15 8 -8 0 -15
-4 -15 -8z"/>
<path d="M4825 3620 c0 -300 1 -422 2 -272 2 149 2 395 0 545 -1 149 -2 27 -2
-273z"/>
<path d="M3265 3990 c3 -5 8 -10 11 -10 2 0 4 5 4 10 0 6 -5 10 -11 10 -5 0
-7 -4 -4 -10z"/>
<path d="M3148 3863 c7 -3 16 -2 19 1 4 3 -2 6 -13 5 -11 0 -14 -3 -6 -6z"/>
<path d="M3058 3733 c17 -2 47 -2 65 0 17 2 3 4 -33 4 -36 0 -50 -2 -32 -4z"/>
<path d="M2750 3260 c0 -5 8 -10 18 -11 14 0 14 -2 -3 -9 -17 -7 -17 -9 -2 -9
9 -1 17 -5 17 -11 0 -6 23 -9 53 -8 47 1 48 2 12 5 -22 3 -44 8 -48 12 -5 5 4
7 20 5 15 -2 22 -1 15 2 -6 3 -9 11 -5 16 4 7 -2 9 -15 6 -12 -4 -22 -2 -22 3
0 5 -9 9 -20 9 -11 0 -20 -4 -20 -10z"/>
<path d="M2754 3206 c-3 -8 -4 -25 -1 -38 4 -19 5 -18 6 7 1 23 3 27 11 15 8
-13 10 -13 10 2 0 23 -19 33 -26 14z"/>
<path d="M2630 3150 c0 -5 5 -10 11 -10 5 0 7 5 4 10 -3 6 -8 10 -11 10 -2 0
-4 -4 -4 -10z"/>
<path d="M2882 2993 l3 -58 68 -3 67 -3 0 61 0 60 -70 0 -71 0 3 -57z"/>
<path d="M3190 2908 c0 -10 9 -9 35 2 17 8 16 8 -7 7 -16 -1 -28 -5 -28 -9z"/>
<path d="M8518 2193 c7 -3 16 -2 19 1 4 3 -2 6 -13 5 -11 0 -14 -3 -6 -6z"/>
<path d="M8537 2150 c3 -11 7 -20 9 -20 2 0 4 9 4 20 0 11 -4 20 -9 20 -5 0
-7 -9 -4 -20z"/>
<path d="M8636 2161 c-3 -4 6 -6 19 -3 14 2 25 6 25 8 0 8 -39 4 -44 -5z"/>
<path d="M8490 2140 c0 -5 9 -10 20 -10 11 0 20 5 20 10 0 6 -9 10 -20 10 -11
0 -20 -4 -20 -10z"/>
<path d="M8568 2123 c7 -3 16 -2 19 1 4 3 -2 6 -13 5 -11 0 -14 -3 -6 -6z"/>
<path d="M8513 2093 c15 -2 37 -2 50 0 12 2 0 4 -28 4 -27 0 -38 -2 -22 -4z"/>
<path d="M7557 1963 c-2 -5 -3 -33 -3 -63 l1 -55 403 -3 402 -2 0 65 0 65
-399 0 c-220 0 -402 -3 -404 -7z"/>
<path d="M8600 1490 l0 -110 55 0 55 0 0 110 0 110 -55 0 -55 0 0 -110z"/>
<path d="M5928 613 c7 -3 16 -2 19 1 4 3 -2 6 -13 5 -11 0 -14 -3 -6 -6z"/>
<path d="M5951 530 l2 -60 177 0 178 0 4 56 c1 31 1 58 -1 60 -2 2 -85 4 -183
4 l-178 0 1 -60z"/>
<path d="M7897 353 c-9 -15 6 -112 17 -116 6 -3 82 -2 168 1 l156 5 4 42 c6
80 16 75 -172 75 -93 0 -171 -3 -173 -7z"/>
<path d="M5253 122 l-113 -3 0 -57 0 -58 125 1 c118 0 125 1 126 20 0 11 2 35
3 53 2 22 -3 35 -13 40 -9 4 -67 6 -128 4z"/>
</g>
</svg>
